<svg xmlns="http://www.w3.org/2000/svg" version="1.1" xmlns:xlink="http://www.w3.org/1999/xlink" xmlns:svgjs="http://svgjs.dev/svgjs" width="1500" height="1500" viewBox="0 0 1500 1500"><rect width="1500" height="1500" fill="#ffffff"></rect><g transform="matrix(0.6666666666666666,0,0,0.6666666666666666,250.00007343750008,187.66666666666674)"><svg viewBox="0 0 320 360" data-background-color="#ffffff" preserveAspectRatio="xMidYMid meet" height="1687" width="1500" xmlns="http://www.w3.org/2000/svg" xmlns:xlink="http://www.w3.org/1999/xlink"><g id="tight-bounds" transform="matrix(1,0,0,1,0.000023499999997511622,0)"><svg viewBox="0 0 320 360" height="360" width="320"><g><svg></svg></g><g><svg viewBox="0 0 320 360" height="360" width="320"><g><path transform="translate(-74.99272,-51.79039) scale(4.65793,4.65793)" d="M20.6 59.9l0.8 1-0.4-1.3c-0.1-0.6-0.8 0.1-0.4 0.3M21.5 59.3c0.3 0.5 0.6 1 0.6 1.5 0 0.7 0.6 1 1.1 1.2-0.7-0.8-1.1-3-1.7-2.7M59.9 16.9c1.7 0 3.3-0.2 5.1 0.2 4.4 1.1 8.1 3.3 10.6 6.4l7 11.2c0.3 2.8 0.9 5.9 0.8 9.3 0.7 0 0.6-1 1.4-1.2-0.8 2-1.2 4.5-1.4 7.4-0.5-1.6 0-4 0.1-5.3-0.7 1.1-1.1 0.3-1.1-0.2 0.1-0.8-0.3-0.7-0.6-1-1.1-1-1.8-2.1-2.6-3.8 0.5-1.3 0.6-3.2-1-4.2-0.5-0.3-1.1-0.8-1.4-1.6-0.4-1.1-1.1-2.4-0.9-4.1 0.1-0.5-1.5 1.1-2.4 0.4-3.9-2.7-7.8-5.8-12.5-8.4-2.5 0-4.3-0.9-5.2-2-0.8-1-0.2-2.3 1-2.4 0.7 0 1.5-0.2 2.1 0.2 0.1-0.4 0.5-0.9 1-0.9M50 14.6l0.2 0.1c1 0.2 1.5 1.6 2.6 1.1 0 0.7 0.1 1.4-0.1 1.9-0.3 0.8-1.2 0.8-1.9 0.8-6.7-0.4-10.6 2.4-14.7 4.8-1.1 0.7-2.3 1.2-3.2 2.1-4.3 4-9 7.7-10.1 15.1l-0.9 8.2c-0.1 0.9-1.1 1.8-0.9 2.9l0.7 4.9c-0.7-0.7-1.1 0.2-0.9 0.6 0.1 0.3 0.5 1.3 1.1 0.4 0.8 1.5 1.6 4.4 2.7 5.7 3.4 4 7.8 7.6 11.4 11.2 0.9-0.2 1.6-0.2 1.8-0.8 0.3 0.6-0.3 1.2-0.8 1.3 1.6 1 3.4 1.9 5.8 2.1 3.1 0.2 6 0.7 8.7 1.4 1.4-0.4 2.8-0.6 4.3-0.7 0.5 0 0.8-0.8 1.4-1l0.1-1c0.6 0.9 0.5-0.3 0.1-0.9 0.7 0.6 0.9 1.1 1.2 1.5 0-0.3 0.8-1.4 0.8-0.1l0.2-1.3c0.3-0.2 0.4 1.1 0.7 0.2 0.3-0.9 0.9-0.2 1.5-0.5-0.2 0.4-0.1 1.2 0.6 0.7l0.8-0.7c0.5 1.2 1.3 0.7 1.7 0.5 4.4-2.8 8.8-6.1 13-9.4l-0.1 1.3 0.5-1.6c0.5 0.5 0.9 0.1 1.1-0.2 0.6-1 1.4-2 2.7-2.9-1.6 4.3-3.5 7.7-5.9 10.5l-1 1.2c0 0.7-0.2 1.6-1 1.7-0.4 0.1-1.2-0.2-1.8 0.4-0.3 0.4 0.7 1.2-0.1 0.6-0.7-0.5-1.4 0-2.2 0.2-0.6 0.2 0.4 0.8 0.6 1.2 0.2 0.4 0.4 0.8 0.3 1.3l-1.1-1.2c-1.3 0.7-2.1 2-3.2 3-0.5 0.4-0.3 1.1-0.3 1.7-0.7 0-1.5-0.2-1.9 0.2-0.3 0.4-0.2 1-0.2 1.6-1-0.1-1.1-1.6-2-1.3-0.9 0.2-1.9 0.3-2.7 0.8 0.6 1.2-1 0.5-0.8 0.7-1.5-0.9-2.8-1.6-4.4-1-3.4-1.1-7.6-0.6-10.7-0.2 0-0.5 0.1-1-0.1-1.1-0.2 0.5-0.8 0.3-0.7 0.3-1.9-1.3-3.8-2.1-5.8-3.2-1.8 0.2-3.5-0.7-4-1.2-1.4-1.3-3-0.6-4.3-0.9-2.8-0.7-3.8-3.6-4.1-5.6-0.2-1-1-1.4-1.3-1.3-1.3-4.2-3.3-8-4.9-11.9-0.4-1-0.3-2-0.3-3.1 0.5 0.2 1 0.1 0.9-0.6-0.5-3.3-1.7-5.8-3-8.2 0.7-3.4 0.8-7.4 2.4-10.4 1.4-2.7 4-4.1 5.8-6.4 0.6-0.8 0.6-1.9 1.2-2.6 2-2 4-4.1 6.2-5.9 1-0.8 2.2 0 3.7-0.3 0.5-1.8 2.5-3.4 4.4-2.9 0.8 0.2 2.4-1.9 2.9-2.1 0.8-0.3 0.4 0.8 0.4 1.5 1.9-1.5 4.5-2.3 6.9-3.2" fill="#000000" fill-rule="nonzero" stroke="none" stroke-width="1" stroke-linecap="butt" stroke-linejoin="miter" stroke-miterlimit="10" stroke-dasharray="" stroke-dashoffset="0" font-family="none" font-weight="none" font-size="none" text-anchor="none" style="mix-blend-mode: normal" data-fill-palette-color="tertiary"></path></g><g transform="matrix(1,0,0,1,64,122.60919661736364)"><svg viewBox="0 0 192 114.78160676527274" height="114.78160676527274" width="192"><g><svg viewBox="0 0 192 114.78160676527274" height="114.78160676527274" width="192"><g><svg viewBox="0 0 192 114.78160676527274" height="114.78160676527274" width="192"><g transform="matrix(1,0,0,1,0,66.92485521050662)"><svg viewBox="0 0 192 47.85675155476612" height="47.85675155476612" width="192"><g id="textblocktransform"><svg viewBox="0 0 192 47.85675155476612" height="47.85675155476612" width="192" id="textblock"><g><svg viewBox="0 0 192 27.130846654825334" height="27.130846654825334" width="192"><g transform="matrix(1,0,0,1,0,0)"><svg width="192" viewBox="3 -35.4 253.32999999999998 35.800000000000004" height="27.130846654825334" data-palette-color="#3581c4"><path d="M14.35 0.4Q11 0.4 8.43-1.2 5.85-2.8 4.42-5.68 3-8.55 3-12.3L3-12.3 3-22.7Q3-26.45 4.42-29.35 5.85-32.25 8.47-33.83 11.1-35.4 14.55-35.4L14.55-35.4 19.85-35.4Q23.1-35.4 25.58-34 28.05-32.6 29.43-30.05 30.8-27.5 30.8-24.2L30.8-24.2 27.2-24.2Q27.2-27.75 25.18-29.93 23.15-32.1 19.85-32.1L19.85-32.1 14.55-32.1Q11-32.1 8.85-29.53 6.7-26.95 6.7-22.7L6.7-22.7 6.7-12.3Q6.7-8.05 8.8-5.48 10.9-2.9 14.35-2.9L14.35-2.9 19.75-2.9Q23.15-2.9 25.23-5.3 27.3-7.7 27.3-11.6L27.3-11.6 30.9-11.6Q30.9-8.05 29.5-5.33 28.1-2.6 25.58-1.1 23.05 0.4 19.75 0.4L19.75 0.4 14.35 0.4ZM36.8 0L36.8-35 40.4-35 40.4-21.5Q41.55-23.25 43.35-24.3 45.15-25.35 47-25.35L47-25.35 50.5-25.35Q53.95-25.35 56.07-23 58.2-20.65 58.2-16.85L58.2-16.85 58.2 0 54.6 0 54.6-16.95Q54.6-19.25 53.45-20.7 52.3-22.15 50.4-22.15L50.4-22.15 47.1-22.15Q44.75-22.15 42.82-20.33 40.9-18.5 40.4-15.65L40.4-15.65 40.4 0 36.8 0ZM72.7 0.4Q69.05 0.4 66.87-1.5 64.7-3.4 64.7-6.6L64.7-6.6 64.7-8.2Q64.7-11.35 66.95-13.25 69.2-15.15 72.9-15.15L72.9-15.15 76.1-15.15Q77.75-15.15 79.5-14.65 81.25-14.15 82.5-13.3L82.5-13.3 82.5-17.45Q82.5-19.55 81.2-20.88 79.9-22.2 77.75-22.2L77.75-22.2 73.75-22.2Q71.6-22.2 70.3-21.2 69-20.2 69-18.55L69-18.55 65.4-18.55Q65.4-21.6 67.7-23.48 70-25.35 73.75-25.35L73.75-25.35 77.75-25.35Q81.45-25.35 83.72-23.18 86-21 86-17.45L86-17.45 86 0 82.6 0 82.6-3.5Q81.45-1.7 79.57-0.65 77.7 0.4 75.7 0.4L75.7 0.4 72.7 0.4ZM72.7-2.75L75.8-2.75Q78.15-2.75 80-4.2 81.85-5.65 82.5-8.05L82.5-8.05 82.5-9.9Q81.5-10.85 79.72-11.43 77.95-12 76.1-12L76.1-12 72.9-12Q70.85-12 69.57-10.95 68.3-9.9 68.3-8.2L68.3-8.2 68.3-6.6Q68.3-4.85 69.5-3.8 70.7-2.75 72.7-2.75L72.7-2.75ZM103.09 0Q99.14 0 97.42-1.7 95.69-3.4 95.69-7.3L95.69-7.3 95.69-21.75 91.29-21.75 91.29-24.95 95.69-24.95 95.69-32.5 99.29-32.5 99.29-24.95 105.79-24.95 105.79-21.75 99.29-21.75 99.29-7.3Q99.29-5.1 100.17-4.15 101.04-3.2 103.09-3.2L103.09-3.2 105.79-3.2 105.79 0 103.09 0ZM122.19 0Q118.24 0 116.52-1.7 114.79-3.4 114.79-7.3L114.79-7.3 114.79-21.75 110.39-21.75 110.39-24.95 114.79-24.95 114.79-32.5 118.39-32.5 118.39-24.95 124.89-24.95 124.89-21.75 118.39-21.75 118.39-7.3Q118.39-5.1 119.27-4.15 120.14-3.2 122.19-3.2L122.19-3.2 124.89-3.2 124.89 0 122.19 0ZM138.99 0.4Q134.79 0.4 132.24-2.08 129.69-4.55 129.69-8.65L129.69-8.65 129.69-15.8Q129.69-20.1 132.24-22.73 134.79-25.35 138.99-25.35L138.99-25.35 143.09-25.35Q147.09-25.35 149.54-22.8 151.99-20.25 151.99-16.05L151.99-16.05 151.99-11.65 133.29-11.65 133.29-8.65Q133.29-6.05 134.86-4.42 136.44-2.8 138.99-2.8L138.99-2.8 142.79-2.8Q145.29-2.8 146.84-4.17 148.39-5.55 148.39-7.85L148.39-7.85 151.89-7.85Q151.89-4.15 149.39-1.88 146.89 0.4 142.79 0.4L142.79 0.4 138.99 0.4ZM133.29-14.75L148.39-14.75 148.39-16.05Q148.39-18.8 146.94-20.48 145.49-22.15 143.09-22.15L143.09-22.15 138.99-22.15Q136.44-22.15 134.86-20.4 133.29-18.65 133.29-15.8L133.29-15.8 133.29-14.75ZM158.29 0L158.29-24.95 161.79-24.95 161.79-21.1Q162.79-22.85 164.81-23.95 166.84-25.05 169.04-25.05L169.04-25.05 171.24-25.05 171.24-21.8 169.04-21.8Q165.84-21.8 163.86-19.78 161.89-17.75 161.89-14.4L161.89-14.4 161.89 0 158.29 0ZM179.48 0Q178.03 0 177.13-0.9 176.23-1.8 176.23-3.25L176.23-3.25 176.23-35 191.03-35Q195.48-35 198.21-32.88 200.93-30.75 200.93-27.25L200.93-27.25 200.93-24.6Q200.93-22.75 200.08-21.08 199.23-19.4 197.73-18.4L197.73-18.4 197.73-18.35Q200.18-17.7 201.66-15.83 203.13-13.95 203.13-11.45L203.13-11.45 203.13-9.05Q203.13-4.95 200.53-2.48 197.93 0 193.48 0L193.48 0 179.48 0ZM179.93-19.2L192.03-19.2Q194.38-19.2 195.81-20.68 197.23-22.15 197.23-24.6L197.23-24.6 197.23-27.25Q197.23-29.25 195.51-30.48 193.78-31.7 191.03-31.7L191.03-31.7 179.93-31.7 179.93-19.2ZM179.93-3.3L192.98-3.3Q195.98-3.3 197.71-4.88 199.43-6.45 199.43-9.05L199.43-9.05 199.43-11.45Q199.43-13.55 197.93-14.83 196.43-16.1 193.98-16.1L193.98-16.1 179.93-16.1 179.93-3.3ZM217.43 0.4Q213.23 0.4 210.68-2.2 208.13-4.8 208.13-9.05L208.13-9.05 208.13-15.9Q208.13-20.15 210.71-22.75 213.28-25.35 217.53-25.35L217.53-25.35 221.63-25.35Q225.88-25.35 228.46-22.75 231.03-20.15 231.03-15.9L231.03-15.9 231.03-9.05Q231.03-4.8 228.43-2.2 225.83 0.4 221.53 0.4L221.53 0.4 217.43 0.4ZM217.43-2.8L221.53-2.8Q224.23-2.8 225.83-4.53 227.43-6.25 227.43-9.05L227.43-9.05 227.43-15.9Q227.43-18.7 225.83-20.43 224.23-22.15 221.63-22.15L221.63-22.15 217.53-22.15Q214.93-22.15 213.33-20.43 211.73-18.7 211.73-15.9L211.73-15.9 211.73-9.05Q211.73-6.2 213.28-4.5 214.83-2.8 217.43-2.8L217.43-2.8ZM233.43 0L242.83-12.75 233.83-24.95 237.93-24.95 244.88-15.55 251.83-24.95 255.93-24.95 246.93-12.75 256.33 0 252.23 0 244.88-9.95 237.53 0 233.43 0Z" opacity="1" transform="matrix(1,0,0,1,0,0)" fill="#000000" class="wordmark-text-0" data-fill-palette-color="primary" id="text-0"></path></svg></g></svg></g><g transform="matrix(1,0,0,1,0,31.089888322084064)"><svg viewBox="0 0 192 16.766863232682056" height="16.766863232682056" width="192"><g transform="matrix(1,0,0,1,0,0)"><svg width="192" viewBox="-3.91 -55 736.39 64.30000000000001" height="16.766863232682056" data-palette-color="#d17b30"><path d="M5.15-15.94L5.15-15.94Q7.08-15.7 11.65-15.5L11.65-15.5Q15.87-21.88 22.46-34.28L22.46-34.28Q26.59-42.04 27.81-47.66L27.81-47.66Q28-48.17 28.44-48.51 28.88-48.85 29.3-48.85L29.3-48.85Q29.93-48.85 30-48.1L30-48.1Q30.4-47.71 30.36-47.22 30.32-46.73 30.05-46.46L30.05-46.46Q29.49-44.48 29.26-42.32 29.03-40.16 28.31-34.33 27.59-28.49 27.59-24.51 27.59-20.53 28.2-14.84L28.2-14.84Q31.2-14.53 31.45-14.18 31.69-13.84 31.69-13.43 31.69-13.01 31.24-12.59 30.79-12.16 30.26-12.19 29.74-12.23 29.35-12.29 28.96-12.35 28.54-12.4L28.54-12.4 28.54-12.16Q28.54-12.01 28.63-11.4 28.71-10.79 28.72-9.72 28.74-8.64 28.82-7.8 28.91-6.96 29.1-6.05 29.3-5.15 29.68-3.45 30.05-1.76 30.05-1.22 30.05-0.68 29.65-0.27 29.25 0.15 28.75 0.15 28.25 0.15 27.88-0.57 27.51-1.29 27.27-2.42 27.03-3.54 26.87-4.93 26.71-6.32 26.59-7.68 26.46-9.03 26.38-10.19 26.29-11.35 26.2-12.01L26.2-12.01 26.05-12.7Q22.73-13.04 19.34-13.09 15.94-13.13 12.55-13.21L12.55-13.21Q6.1-3.44 0.39-0.85L0.39-0.85Q-1.51 0.1-2.59 0.1L-2.59 0.1Q-3.91 0.1-3.91-1.15L-3.91-1.15Q-3.91-1.78-3.47-2.25-3.03-2.71-2.55-2.71-2.08-2.71-1.81-2.29L-1.81-2.29-1.76-2.34Q3.47-4.37 8.11-10.55L8.11-10.55Q8.81-11.52 9.25-12.08 9.69-12.65 10.11-13.26L10.11-13.26Q6.32-13.45 4.44-13.65L4.44-13.65Q3.76-13.92 3.76-14.45 3.76-14.99 4.19-15.43 4.61-15.87 5.15-15.94ZM25.81-15.09L25.81-15.09Q25.39-18.36 25.39-23.96 25.39-29.57 26.44-37.55L26.44-37.55Q23.49-31.42 19.89-25.13 16.28-18.85 14.11-15.45L14.11-15.45Q17.04-15.41 19.98-15.37 22.92-15.33 25.81-15.09ZM48.24 0L48.24 0Q45.38 0 45.38-3.59 45.38-7.18 48.06-12.39 50.73-17.6 54.34-21.4 57.96-25.2 60.24-25.2 62.52-25.2 62.84-23.19L62.84-23.19Q62.94-22.58 62.99-21.9L62.99-21.9Q63.21-22.05 63.52-22.05L63.52-22.05Q64.67-22.05 64.67-20.95L64.67-20.95 64.67-20.75Q64.67-20.68 64.06-18.55 63.45-16.43 62.67-11.47 61.89-6.52 61.89-3L61.89-3Q62.11-2.86 62.4-2.67 62.69-2.49 63.13-2.11 63.57-1.73 63.57-1.22 63.57-0.71 63.26-0.31 62.94 0.1 62.35 0.1L62.35 0.1Q61.16 0.1 60.19-1.12 59.23-2.34 59.23-3.76L59.23-3.76Q59.23-6.81 60.89-14.26L60.89-14.26Q58.81-9.91 55.52-5.88 52.22-1.86 50.96-0.93 49.71 0 48.24 0ZM47.87-3.49L47.87-3.49Q47.87-2.59 48.63-2.59L48.63-2.59Q49.17-2.59 49.53-2.95L49.53-2.95Q54.59-7.3 58.59-14.99L58.59-14.99Q60.86-19.38 61-20.04 61.13-20.7 61.13-21.17 61.13-21.63 60.89-22.05 60.64-22.46 60.2-22.46 59.76-22.46 58.91-22L58.91-22Q57.03-20.97 54.28-17.63 51.54-14.28 49.71-10.35 47.87-6.42 47.87-3.49ZM89.45-25.24L89.45-25.24Q94.06-25.24 94.06-18.26L94.06-18.26Q94.06-12.82 91.06-6.57L91.06-6.57Q89.03-2.37 86.18-0.51L86.18-0.51Q84.71 0.44 83.15 0.44L83.15 0.44Q80.39 0.44 79.2-1.76 78-3.96 78-6.49L78-6.49Q78-11.04 79.53-15.31 81.05-19.58 83.68-22.41 86.3-25.24 89.45-25.24ZM82.91-17.16L82.91-17.16Q80.27-11.89 80.27-6.86L80.27-6.86Q80.27-3.37 82.2-2.17L82.2-2.17Q82.78-1.81 83.54-1.81L83.54-1.81Q85.1-1.81 87.03-4.52 88.96-7.23 90.28-11.19 91.6-15.16 91.6-18.01 91.6-20.85 91.27-21.61 90.94-22.36 90.51-22.66 90.08-22.95 89.1-22.95 88.11-22.95 86.94-22.17L86.94-22.17Q84.66-20.7 82.91-17.16ZM104.02 9.3L104.02 9.3Q103.12 9.3 103.12 8.4L103.12 8.4Q103.12 8.03 103.41 7.54L103.41 7.54Q104.54 6.27 105.77 3.83 107 1.39 107.22 0.85L107.22 0.85Q107.22 0.68 107.05 0.6 106.88 0.51 106.88 0.24L106.88 0.24Q106.44 0.44 106.03 0.44L106.03 0.44Q105.02 0.44 105.02-0.61L105.02-0.61Q105.02-1.49 105.7-2.34 106.37-3.2 107.54-3.2L107.54-3.2Q109.66-3.2 109.66-0.49L109.66-0.49Q109.66 1.51 108.01 4.38 106.37 7.25 104.88 9.01L104.88 9.01Q104.44 9.3 104.02 9.3ZM183.07-48.34L183.07-48.34Q183.93-48.34 183.93-47.51L183.93-47.51Q183.93-47 183.54-46.51L183.54-46.51Q179.78-42.02 172.17-33.45 164.57-24.88 162.03-21.9L162.03-21.9Q162.71-14.89 166.13-8.79L166.13-8.79Q168.52-4.54 171.87-2.73L171.87-2.73Q173.58-1.81 175.38-1.81 177.19-1.81 178.17-2.17 179.14-2.54 180.07-3.96L180.07-3.96Q180.56-4.35 181-4.35L181-4.35Q181.97-4.35 181.97-3.47 181.97-2.59 180.48-1.29 179 0 177.73 0.22 176.46 0.44 174.78 0.44 173.11 0.44 171.16-0.52 169.21-1.49 167.62-3.13L167.62-3.13Q164.71-6.05 162.77-10.72 160.83-15.38 160.03-20.04L160.03-20.04Q159.49-19.43 159-18.99 158.51-18.55 158.17-17.99L158.17-17.99Q155.63-6.54 154.73-0.95L154.73-0.95Q154.61-0.34 154.17 0.05 153.73 0.44 153.31 0.44L153.31 0.44Q152.53 0.44 152.43-0.61L152.43-0.61Q154.68-13.04 158.04-27.47 161.39-41.89 162.69-47.61L162.69-47.61Q162.88-48.12 163.32-48.46 163.76-48.8 164.1-48.8L164.1-48.8Q164.93-48.8 164.93-47.9L164.93-47.9 164.93-47.61Q163.71-41.33 162.24-34.95 160.76-28.56 159.32-22.19L159.32-22.19Q162.1-25.34 169.82-33.94 177.53-42.53 182.07-47.95L182.07-47.95Q182.56-48.34 183.07-48.34ZM196.55 0L196.55 0Q193.69 0 193.69-3.59 193.69-7.18 196.36-12.39 199.04-17.6 202.65-21.4 206.26-25.2 208.55-25.2 210.83-25.2 211.15-23.19L211.15-23.19Q211.24-22.58 211.29-21.9L211.29-21.9Q211.51-22.05 211.83-22.05L211.83-22.05Q212.98-22.05 212.98-20.95L212.98-20.95 212.98-20.75Q212.98-20.68 212.37-18.55 211.76-16.43 210.98-11.47 210.2-6.52 210.2-3L210.2-3Q210.41-2.86 210.71-2.67 211-2.49 211.44-2.11 211.88-1.73 211.88-1.22 211.88-0.71 211.56-0.31 211.24 0.1 210.66 0.1L210.66 0.1Q209.46 0.1 208.5-1.12 207.53-2.34 207.53-3.76L207.53-3.76Q207.53-6.81 209.19-14.26L209.19-14.26Q207.12-9.91 203.82-5.88 200.53-1.86 199.27-0.93 198.01 0 196.55 0ZM196.18-3.49L196.18-3.49Q196.18-2.59 196.94-2.59L196.94-2.59Q197.48-2.59 197.84-2.95L197.84-2.95Q202.9-7.3 206.9-14.99L206.9-14.99Q209.17-19.38 209.3-20.04 209.44-20.7 209.44-21.17 209.44-21.63 209.19-22.05 208.95-22.46 208.51-22.46 208.07-22.46 207.22-22L207.22-22Q205.34-20.97 202.59-17.63 199.84-14.28 198.01-10.35 196.18-6.42 196.18-3.49ZM237.76-46.9L237.76-46.9 237.66-46.56Q236.37-38.06 234.86-31.27 233.36-24.49 232.21-18.95L232.21-18.95Q233.75-21.7 234.8-22.85L234.8-22.85Q236.9-25.15 238.88-25.15 240.86-25.15 241.91-23.63 242.96-22.12 242.96-20.46L242.96-20.46Q242.96-16.85 241.82-11.88 240.69-6.91 238.71-3.64L238.71-3.64Q236.24 0.49 233.07 0.49L233.07 0.49Q230.77 0.49 229.65-1.56 228.53-3.61 228.53-6.3 228.53-8.98 228.91-11.47 229.29-13.96 229.72-16.75 230.16-19.53 230.57-21.84 230.97-24.15 231.34-26.1 231.7-28.05 232.08-29.9 232.46-31.74 233.44-36.46 234.41-41.19 235.46-47.19L235.46-47.19Q235.88-48 236.46-48L236.46-48Q237.76-48 237.76-46.9ZM231.07-6.3L231.07-6.3Q231.07-2.05 233.07-2.05L233.07-2.05Q234.9-2.05 236.68-5.03L236.68-5.03Q239.1-9.06 240.05-15.01L240.05-15.01Q240.32-16.7 240.32-18.59 240.32-20.48 239.98-21.59 239.64-22.71 238.56-22.71L238.56-22.71Q236.98-22.71 234.39-18.97 231.8-15.23 231.43-11.61 231.07-7.98 231.07-6.3ZM258.6-1.61L258.65-0.76Q258.65 0.39 256.8 0.39L256.8 0.39Q255.94 0.39 255.94-0.44 255.94-1.27 260.83-23.68L260.83-23.68Q264.46-40.84 265.44-46.85L265.44-46.85 265.64-47.51Q265.86-48.24 266.51-48.24L266.51-48.24Q267.76-48.24 268.1-47L268.1-47Q267.91-46.07 267.58-44.41 267.25-42.75 266.81-40.63 266.37-38.5 265.86-36.04 265.34-33.57 264.81-31.03 264.27-28.49 263.17-23.27 262.07-18.04 261.29-14.5L261.29-14.5Q266.39-25 270.93-25L270.93-25Q272.79-25 273.69-23.55 274.6-22.09 274.6-20.34 274.6-18.58 273.96-15.43L273.96-15.43 273.13-11.23Q271.76-4.32 271.76-2.98L271.76-2.98 271.84-1.07Q271.84-0.44 271.41-0.05 270.98 0.34 270.27 0.34 269.57 0.34 269.24-0.16 268.91-0.66 268.91-1.12 268.91-1.59 268.98-1.95L268.98-1.95 271.89-18.19Q272.03-18.97 272.03-20L272.03-20Q272.03-22.51 270.64-22.51L270.64-22.51Q268-22.51 263.46-14.62L263.46-14.62Q260.9-10.16 260.31-8.44 259.73-6.71 259.17-4.48 258.6-2.25 258.6-1.61L258.6-1.61ZM296.15-33.59L296.15-33.59Q297.59-33.59 297.59-32.15L297.59-32.15Q297.59-30.05 296.13-29.79L296.13-29.79Q295.71-29.71 295.22-29.71 294.74-29.71 294.25-30.2 293.76-30.69 293.76-31.46 293.76-32.23 294.52-32.91 295.27-33.59 296.15-33.59ZM292.71-22.19L292.71-22.19 292.71-22.68Q292.71-23.02 292.34-24.34L292.34-24.34Q292.34-24.95 292.76-25.45 293.17-25.95 293.77-25.95 294.37-25.95 294.76-25.2 295.15-24.44 295.15-23.54 295.15-22.63 292.86-12.74 290.56-2.86 290.56-2.33 290.56-1.81 291.05-1.81L291.05-1.81Q291.37-1.81 291.95-2.43 292.54-3.05 292.95-3.05L292.95-3.05Q293.76-3.05 293.76-2.04 293.76-1.03 292.25-0.27 290.73 0.49 290.05 0.49L290.05 0.49Q288.34 0.49 288.34-2.25L288.34-2.25Q288.34-2.81 288.57-3.5 288.8-4.2 289.06-5.43 289.32-6.67 289.79-8.79 290.27-10.91 290.77-13.18 291.27-15.45 291.99-18.69 292.71-21.92 292.71-22.19ZM358.84-6.25L358.84-6.25Q359.7-6.25 359.7-5.35L359.7-5.35Q359.7-4.66 358.94-4.1L358.94-4.1Q357.79-3.32 356.62-2.44L356.62-2.44Q352.37 0.73 348.81 0.73L348.81 0.73Q346.81 0.73 345-0.29L345-0.29Q341.17-2.44 339.51-8.03L339.51-8.03Q338.68-10.84 338.68-13.38L338.68-13.38Q338.68-17.55 340.01-23.33 341.34-29.1 343.83-34.97 346.32-40.84 349.79-44.78 353.25-48.71 357.16-48.71 361.07-48.71 363.73-45.45 366.39-42.19 366.39-38.79L366.39-38.79Q366.31-38.28 365.88-37.84 365.44-37.4 365-37.4 364.56-37.4 364.34-37.7L364.34-37.7Q364.02-38.13 363.9-39.31L363.9-39.31Q363.51-42.41 361.68-44.35 359.84-46.29 357.11-46.29 354.38-46.29 351.28-42.6L351.28-42.6Q347.15-37.72 344.2-28.77 341.24-19.82 341.24-14.64 341.24-9.45 343-5.96L343-5.96Q345.15-1.71 349.2-1.71L349.2-1.71Q352.18-1.71 356.04-4.49L356.04-4.49Q357.11-5.27 357.77-5.76 358.43-6.25 358.84-6.25ZM378.13-1.61L378.18-0.76Q378.18 0.39 376.32 0.39L376.32 0.39Q375.47 0.39 375.47-0.44 375.47-1.27 380.35-23.68L380.35-23.68Q383.99-40.84 384.97-46.85L384.97-46.85 385.16-47.51Q385.38-48.24 386.04-48.24L386.04-48.24Q387.28-48.24 387.63-47L387.63-47Q387.43-46.07 387.1-44.41 386.77-42.75 386.33-40.63 385.89-38.5 385.38-36.04 384.87-33.57 384.33-31.03 383.79-28.49 382.69-23.27 381.6-18.04 380.81-14.5L380.81-14.5Q385.92-25 390.46-25L390.46-25Q392.31-25 393.22-23.55 394.12-22.09 394.12-20.34 394.12-18.58 393.49-15.43L393.49-15.43 392.66-11.23Q391.29-4.32 391.29-2.98L391.29-2.98 391.36-1.07Q391.36-0.44 390.93-0.05 390.51 0.34 389.8 0.34 389.09 0.34 388.76-0.16 388.43-0.66 388.43-1.12 388.43-1.59 388.51-1.95L388.51-1.95 391.41-18.19Q391.56-18.97 391.56-20L391.56-20Q391.56-22.51 390.17-22.51L390.17-22.51Q387.53-22.51 382.99-14.62L382.99-14.62Q380.42-10.16 379.84-8.44 379.25-6.71 378.69-4.48 378.13-2.25 378.13-1.61L378.13-1.61ZM409.99 0L409.99 0Q407.13 0 407.13-3.59 407.13-7.18 409.8-12.39 412.48-17.6 416.09-21.4 419.7-25.2 421.99-25.2 424.27-25.2 424.59-23.19L424.59-23.19Q424.69-22.58 424.73-21.9L424.73-21.9Q424.95-22.05 425.27-22.05L425.27-22.05Q426.42-22.05 426.42-20.95L426.42-20.95 426.42-20.75Q426.42-20.68 425.81-18.55 425.2-16.43 424.42-11.47 423.64-6.52 423.64-3L423.64-3Q423.86-2.86 424.15-2.67 424.44-2.49 424.88-2.11 425.32-1.73 425.32-1.22 425.32-0.71 425-0.31 424.69 0.1 424.1 0.1L424.1 0.1Q422.9 0.1 421.94-1.12 420.97-2.34 420.97-3.76L420.97-3.76Q420.97-6.81 422.63-14.26L422.63-14.26Q420.56-9.91 417.26-5.88 413.97-1.86 412.71-0.93 411.45 0 409.99 0ZM409.62-3.49L409.62-3.49Q409.62-2.59 410.38-2.59L410.38-2.59Q410.92-2.59 411.28-2.95L411.28-2.95Q416.34-7.3 420.34-14.99L420.34-14.99Q422.61-19.38 422.74-20.04 422.88-20.7 422.88-21.17 422.88-21.63 422.63-22.05 422.39-22.46 421.95-22.46 421.51-22.46 420.66-22L420.66-22Q418.78-20.97 416.03-17.63 413.28-14.28 411.45-10.35 409.62-6.42 409.62-3.49ZM444.9-23L444.9-23Q442.82-23 441.31-22.75L441.31-22.75Q440.31-22.85 440.31-23.61L440.31-23.61Q440.31-24.05 440.67-24.51 441.04-24.98 441.65-25.05L441.65-25.05 445.26-24.95Q445.36-25.46 445.47-26.18 445.58-26.9 445.86-28.28 446.14-29.66 446.64-30.79 447.14-31.91 447.95-31.91 448.76-31.91 448.76-31.01L448.76-31.01 448.76-30.69Q448.05-27.66 447.56-25L447.56-25 451.15-25Q453.05-25 453.48-24.71 453.91-24.41 453.91-23.97L453.91-23.97Q453.91-23.12 452.86-22.85L452.86-22.85Q452.32-22.71 450.7-22.71 449.07-22.71 447.17-22.85L447.17-22.85Q446.71-20.41 445.11-13.72 443.51-7.03 443.51-5.09 443.51-3.15 443.95-2.54L443.95-2.54Q444.26-2.15 445.02-2.15 445.78-2.15 446.31-2.59 446.85-3.03 447.29-3.55 447.73-4.08 448.16-4.52 448.58-4.96 449.1-4.96L449.1-4.96Q450.1-4.96 450.1-3.96L450.1-3.96Q450.1-3.44 449.09-2.26 448.07-1.07 447.22-0.44 446.36 0.2 444.73 0.2 443.09 0.2 442.48-0.37L442.48-0.37Q441.21-1.49 441.21-3.96L441.21-3.96Q441.21-5.22 441.5-6.96L441.5-6.96 441.97-9.79Q442.43-11.89 442.8-13.46 443.16-15.04 443.43-16.24 443.7-17.43 444.14-19.35 444.58-21.26 444.9-23ZM470.17-23L470.17-23Q468.09-23 466.58-22.75L466.58-22.75Q465.58-22.85 465.58-23.61L465.58-23.61Q465.58-24.05 465.94-24.51 466.31-24.98 466.92-25.05L466.92-25.05 470.53-24.95Q470.63-25.46 470.74-26.18 470.85-26.9 471.13-28.28 471.41-29.66 471.91-30.79 472.41-31.91 473.22-31.91 474.02-31.91 474.02-31.01L474.02-31.01 474.02-30.69Q473.31-27.66 472.83-25L472.83-25 476.42-25Q478.32-25 478.75-24.71 479.17-24.41 479.17-23.97L479.17-23.97Q479.17-23.12 478.12-22.85L478.12-22.85Q477.59-22.71 475.96-22.71 474.34-22.71 472.44-22.85L472.44-22.85Q471.97-20.41 470.37-13.72 468.77-7.03 468.77-5.09 468.77-3.15 469.21-2.54L469.21-2.54Q469.53-2.15 470.29-2.15 471.04-2.15 471.58-2.59 472.12-3.03 472.56-3.55 473-4.08 473.42-4.52 473.85-4.96 474.36-4.96L474.36-4.96Q475.37-4.96 475.37-3.96L475.37-3.96Q475.37-3.44 474.35-2.26 473.34-1.07 472.48-0.44 471.63 0.2 469.99 0.2 468.36 0.2 467.75-0.37L467.75-0.37Q466.48-1.49 466.48-3.96L466.48-3.96Q466.48-5.22 466.77-6.96L466.77-6.96 467.24-9.79Q467.7-11.89 468.07-13.46 468.43-15.04 468.7-16.24 468.97-17.43 469.41-19.35 469.85-21.26 470.17-23ZM501.44-4.1L501.44-4.1Q502.29-4.1 502.29-3.2L502.29-3.2Q502.29-2.15 499.73-0.83 497.17 0.49 495.46 0.49 493.75 0.49 492.89-0.07 492.04-0.63 491.5-1.64L491.5-1.64Q490.45-3.59 490.45-6.35L490.45-6.35Q490.45-11.23 491.92-15.55 493.38-19.87 495.82-22.72 498.26-25.56 501.1-25.56L501.1-25.56Q502.61-25.56 503.48-24.3 504.34-23.05 504.34-21.34L504.34-21.34Q504.34-18.14 502.67-15.92 501-13.7 498.56-12.28 496.12-10.86 492.94-9.59L492.94-9.59 492.84-6.01Q492.84-1.81 495.38-1.81L495.38-1.81Q496.75-1.81 498.25-2.6 499.75-3.39 500.41-3.75 501.07-4.1 501.44-4.1ZM502.05-21.24L502.05-21.24Q502.05-23.19 500.41-23.19L500.41-23.19Q498.95-23.19 496.97-20.56 494.99-17.92 493.7-13.6L493.7-13.6Q493.38-12.55 493.33-12.01L493.33-12.01Q494.31-12.55 495.33-13.04 496.36-13.53 497.34-14.06L497.34-14.06Q499.58-15.31 500.82-16.98 502.05-18.65 502.05-21.24ZM516.48-0.1L516.48-0.1 517.6-6.05Q518.48-10.62 518.79-12.54 519.11-14.45 519.51-16.76 519.92-19.07 521.16-23.39L521.16-23.39Q521.11-23.51 521.11-23.61L521.11-23.61 521.11-23.85Q521.11-25.02 522.02-25.54L522.02-25.54Q522.29-25.71 522.58-25.71L522.58-25.71Q523.63-25.71 523.63-24.19L523.63-24.19Q523.63-23.32 522.92-21.03 522.21-18.75 521.82-16.8L521.82-16.8Q522.16-17.36 522.66-18.21 523.16-19.07 524.25-20.7 525.34-22.34 526.99-23.82 528.63-25.29 530.35-25.29 532.08-25.29 532.98-24.37L532.98-24.37Q533.32-24.05 533.32-23.56 533.32-23.07 532.88-22.68 532.44-22.29 531.98-22.29 531.51-22.29 531.07-22.55 530.64-22.8 530.1-22.8 529.56-22.8 528.39-21.92L528.39-21.92Q523.73-18.53 520.7-8.47L520.7-8.47Q519.89-5.79 519.72-4.77 519.55-3.76 519.43-3.13L519.43-3.13Q518.7 0.81 517.18 0.81L517.18 0.81Q516.48 0.81 516.48-0.1ZM554.63-46.9L554.63-46.9 554.54-46.56Q553.24-38.06 551.74-31.27 550.24-24.49 549.09-18.95L549.09-18.95Q550.63-21.7 551.68-22.85L551.68-22.85Q553.78-25.15 555.76-25.15 557.73-25.15 558.78-23.63 559.83-22.12 559.83-20.46L559.83-20.46Q559.83-16.85 558.7-11.88 557.56-6.91 555.59-3.64L555.59-3.64Q553.12 0.49 549.95 0.49L549.95 0.49Q547.65 0.49 546.53-1.56 545.4-3.61 545.4-6.3 545.4-8.98 545.78-11.47 546.16-13.96 546.6-16.75 547.04-19.53 547.44-21.84 547.85-24.15 548.21-26.1 548.58-28.05 548.96-29.9 549.34-31.74 550.31-36.46 551.29-41.19 552.34-47.19L552.34-47.19Q552.75-48 553.34-48L553.34-48Q554.63-48 554.63-46.9ZM547.94-6.3L547.94-6.3Q547.94-2.05 549.95-2.05L549.95-2.05Q551.78-2.05 553.56-5.03L553.56-5.03Q555.98-9.06 556.93-15.01L556.93-15.01Q557.2-16.7 557.2-18.59 557.2-20.48 556.85-21.59 556.51-22.71 555.44-22.71L555.44-22.71Q553.85-22.71 551.26-18.97 548.68-15.23 548.31-11.61 547.94-7.98 547.94-6.3ZM583.76-25.24L583.76-25.24Q588.37-25.24 588.37-18.26L588.37-18.26Q588.37-12.82 585.37-6.57L585.37-6.57Q583.34-2.37 580.49-0.51L580.49-0.51Q579.02 0.44 577.46 0.44L577.46 0.44Q574.7 0.44 573.5-1.76 572.31-3.96 572.31-6.49L572.31-6.49Q572.31-11.04 573.83-15.31 575.36-19.58 577.98-22.41 580.61-25.24 583.76-25.24ZM577.21-17.16L577.21-17.16Q574.58-11.89 574.58-6.86L574.58-6.86Q574.58-3.37 576.51-2.17L576.51-2.17Q577.09-1.81 577.85-1.81L577.85-1.81Q579.41-1.81 581.34-4.52 583.27-7.23 584.59-11.19 585.91-15.16 585.91-18.01 585.91-20.85 585.58-21.61 585.25-22.36 584.82-22.66 584.39-22.95 583.4-22.95 582.41-22.95 581.24-22.17L581.24-22.17Q578.97-20.7 577.21-17.16ZM597.94-0.44L597.94-0.44Q597.94-0.93 598.4-1.64 598.87-2.34 601.38-6.38 603.9-10.42 605.97-13.5L605.97-13.5Q605.83-13.84 605.69-14.25 605.56-14.65 605.09-15.99 604.63-17.33 603.99-19.13 603.36-20.92 603.15-21.56 602.94-22.19 602.75-22.81 602.55-23.44 602.4-23.9 602.24-24.37 602.24-24.67 602.24-24.98 602.6-25.37 602.97-25.76 603.57-25.76 604.17-25.76 604.52-25.28 604.87-24.8 605.09-24.15 605.31-23.49 605.45-22.79 605.58-22.09 605.78-21.48 605.97-20.87 606.22-20.19 606.46-19.51 606.7-18.84 606.95-18.16 607.22-17.47 607.49-16.77 607.78-15.99L607.78-15.99Q608.78-17.21 610.82-20.13 612.86-23.05 613.43-23.78 614-24.51 614.83-25L614.83-25Q615.2-25.15 615.54-25.15L615.54-25.15Q616.32-25 616.32-24.35 616.32-23.71 616.08-23.24L616.08-23.24Q615.71-22.51 614.77-21.39 613.83-20.26 612-17.58 610.17-14.89 608.88-13.35L608.88-13.35Q611.59-6.71 612.08-5.26 612.56-3.81 613.1-2.8 613.64-1.78 613.64-0.85L613.64-0.85Q613.57-0.32 613.11 0.04 612.66 0.39 612.08 0.39 611.49 0.39 611.27-0.39L611.27-0.39Q611.2-1.22 610.77-1.97 610.34-2.71 609.9-3.99 609.46-5.27 608.68-7.09 607.9-8.91 607.12-10.89L607.12-10.89 600.28-0.39Q599.82 0.34 598.88 0.34 597.94 0.34 597.94-0.44ZM662.66-19.75L662.66-19.75Q658.41-21.12 658.41-22.19L658.41-22.19Q658.41-22.8 658.83-23.1 659.24-23.39 659.7-23.39 660.17-23.39 660.61-23.27 661.05-23.14 661.49-22.97 661.93-22.8 662.37-22.6 662.8-22.39 663.17-22.24L663.17-22.24 668.18-45.7Q665.95-45.02 664.9-43.14L664.9-43.14Q664.47-42.55 663.76-42.55L663.76-42.55Q662.85-42.55 662.85-43.41L662.85-43.41Q662.85-43.58 662.98-43.95L662.98-43.95Q664.73-47.29 668.91-48.1L668.91-48.1Q669.45-49.1 670.17-49.1 670.89-49.1 671.01-48.34L671.01-48.34 671.2-48.34Q676.79-48.34 679.98-44.62 683.17-40.89 683.17-36.3L683.17-36.3Q683.17-28.59 679.24-23.93L679.24-23.93Q674.99-18.85 667.27-18.85L667.27-18.85Q666.08-18.85 664.76-19.19L664.76-19.19Q664.2-16.38 662.99-10.79 661.78-5.2 661.07-1.15L661.07-1.15Q660.95-0.54 660.51-0.15 660.07 0.24 659.68 0.24L659.68 0.24Q658.87 0.24 658.78-0.81L658.78-0.81Q659.61-5.62 660.89-11.49 662.17-17.36 662.66-19.75ZM670.52-46.09L665.27-21.51Q666.44-21.19 668.82-21.19 671.2-21.19 673.53-22.31 675.87-23.44 677.55-25.34L677.55-25.34Q681.07-29.39 681.07-35.11L681.07-35.11Q681.07-39.55 678.23-42.82 675.4-46.09 670.52-46.09L670.52-46.09ZM704.99-4.1L704.99-4.1Q705.85-4.1 705.85-3.2L705.85-3.2Q705.85-2.15 703.28-0.83 700.72 0.49 699.01 0.49 697.3 0.49 696.45-0.07 695.59-0.63 695.05-1.64L695.05-1.64Q694-3.59 694-6.35L694-6.35Q694-11.23 695.47-15.55 696.93-19.87 699.38-22.72 701.82-25.56 704.65-25.56L704.65-25.56Q706.16-25.56 707.03-24.3 707.9-23.05 707.9-21.34L707.9-21.34Q707.9-18.14 706.22-15.92 704.55-13.7 702.11-12.28 699.67-10.86 696.49-9.59L696.49-9.59 696.4-6.01Q696.4-1.81 698.94-1.81L698.94-1.81Q700.3-1.81 701.8-2.6 703.31-3.39 703.97-3.75 704.62-4.1 704.99-4.1ZM705.6-21.24L705.6-21.24Q705.6-23.19 703.97-23.19L703.97-23.19Q702.5-23.19 700.52-20.56 698.55-17.92 697.25-13.6L697.25-13.6Q696.93-12.55 696.89-12.01L696.89-12.01Q697.86-12.55 698.89-13.04 699.91-13.53 700.89-14.06L700.89-14.06Q703.14-15.31 704.37-16.98 705.6-18.65 705.6-21.24ZM731.62-55L731.62-55Q732.26-55 732.48-54.15L732.48-54.15Q732.41-52.15 731.84-48.83 731.28-45.51 730.7-40.42 730.11-35.33 728.45-26.54 726.79-17.75 724.72-9.01L724.72-9.01Q724.25-8.01 723.32-8.01L723.32-8.01Q722.57-8.01 722.47-9.01L722.47-9.01Q727.01-28.34 728.82-43.9L728.82-43.9Q729.13-46.41 729.6-48.85 730.06-51.29 730.18-53.81L730.18-53.81Q730.33-54.3 730.75-54.65 731.16-55 731.62-55ZM721.69 1.15L721.69 1.15Q720.69 0.78 720.69-0.31 720.69-1.39 721.58-2.12 722.47-2.86 723.31-2.86 724.15-2.86 724.59-2.29 725.03-1.73 725.03-0.87 725.03 0 724.34 1.22 723.64 2.44 722.52 2.44L722.52 2.44Q722.1 2.44 721.86 2.19 721.61 1.93 721.61 1.62 721.61 1.32 721.69 1.15Z" opacity="1" transform="matrix(1,0,0,1,0,0)" fill="#000000" class="slogan-text-1" data-fill-palette-color="secondary" id="text-1"></path></svg></g></svg></g></svg></g></svg></g><g transform="matrix(1,0,0,1,36.672,0)"><svg viewBox="0 0 118.656 62.96581354324788" height="62.96581354324788" width="118.656"><g><svg xmlns="http://www.w3.org/2000/svg" xmlns:xlink="http://www.w3.org/1999/xlink" version="1.1" x="0" y="0" viewBox="6.518999999999999 26.984 86.48500126596007 45.893999999999984" enable-background="new 0 0 100 100" xml:space="preserve" height="62.96581354324788" width="118.656" class="icon-icon-0" data-fill-palette-color="accent" id="icon-0"><path d="M87.727 44.08c-0.105 0-0.209 0.01-0.312 0.016l2.512-0.976c1.678-0.652 2.513-2.547 1.861-4.226-0.483-1.246-1.707-2.083-3.044-2.083-0.403 0-0.802 0.075-1.181 0.222l-4.055 1.575v-3.853c0-4.285-3.601-7.771-8.023-7.771H24.096c-4.098 0-7.511 2.988-7.969 6.882-1.099 0.095-2.063 0.45-2.869 1.06-2.248 1.701-2.886 5.174-1.728 9.167-2.786 0.142-5.011 2.446-5.011 5.266v16.342c0 2.769 2.143 5.041 4.855 5.258-0.05 0.147-0.079 0.304-0.079 0.468 0 0.8 0.651 1.451 1.451 1.451h12.648c0.8 0 1.451-0.651 1.451-1.451 0-0.155-0.025-0.305-0.071-0.446h45.91c-0.046 0.142-0.07 0.291-0.07 0.446 0 0.8 0.65 1.451 1.451 1.451h12.647c0.801 0 1.451-0.651 1.451-1.451 0-0.163-0.028-0.317-0.077-0.465 2.743-0.187 4.918-2.472 4.918-5.261V49.359C93.006 46.448 90.638 44.08 87.727 44.08zM87.927 37.97c0.264-0.102 0.538-0.154 0.817-0.154 0.925 0 1.771 0.58 2.106 1.442 0.451 1.161-0.127 2.473-1.287 2.924l-21.93 8.515-2.004 0.779-5.339 2.072c-0.135-0.441-0.195-1.334 0.025-2.503 0.174-0.915 0.527-1.961 1.071-2.77L87.927 37.97zM84.396 45.268c-0.333 0.272-0.629 0.586-0.887 0.93v-0.585L84.396 45.268zM35.025 39.6c0.993-0.487 2.066-0.639 3.168-0.413l0.263 0.054 0.191-0.188c2.493-2.456 6.273-3.865 10.371-3.865 1.31 0 2.579 0.148 3.78 0.42 1.433 1.128 1.117 8.747 0.547 13.79-0.321-0.12-0.667-0.188-1.029-0.188H37.397c-0.004-0.009-0.01-0.017-0.015-0.026-0.023-0.042-0.048-0.083-0.073-0.125-0.039-0.066-0.077-0.132-0.119-0.196-0.029-0.043-0.059-0.084-0.088-0.125-0.042-0.06-0.085-0.119-0.13-0.176-0.033-0.041-0.066-0.081-0.1-0.12-0.047-0.055-0.095-0.109-0.145-0.162-0.036-0.038-0.071-0.074-0.108-0.111-0.053-0.051-0.106-0.101-0.162-0.15-0.037-0.033-0.075-0.066-0.113-0.099-0.059-0.049-0.12-0.095-0.182-0.14-0.037-0.028-0.074-0.057-0.113-0.083-0.07-0.048-0.142-0.092-0.215-0.136-0.034-0.021-0.066-0.042-0.1-0.062-0.108-0.061-0.219-0.119-0.333-0.17l-4.125-1.88c0.008-0.063 0.013-0.123 0.021-0.186 0.094-0.039 0.183-0.084 0.274-0.126 0.042-0.02 0.084-0.038 0.125-0.058 0 0 0 0 0 0 0.142-0.069 0.278-0.144 0.413-0.222 0.035-0.02 0.069-0.039 0.103-0.059 0 0 0.001-0.001 0.001-0.001 0.091-0.055 0.179-0.114 0.267-0.173 0 0 0 0 0.001-0.001 0.024-0.016 0.047-0.034 0.071-0.05 0.134-0.093 0.263-0.19 0.387-0.292 0.001-0.001 0.003-0.002 0.004-0.003 0.064-0.053 0.129-0.104 0.191-0.16 0 0 0-0.001 0.001-0.001 0.101-0.09 0.196-0.186 0.29-0.282 0.038-0.037 0.076-0.074 0.111-0.112 0 0 0 0 0 0 0.077-0.083 0.146-0.17 0.217-0.257l0 0c0.003-0.004 0.007-0.008 0.011-0.013 0.122-0.149 0.235-0.304 0.34-0.465 0 0 0 0 0.001 0 0.034-0.052 0.072-0.102 0.104-0.155 0 0 0 0 0 0 0.097-0.159 0.186-0.322 0.266-0.491 0.055-0.113 0.104-0.229 0.151-0.344v0c0.015-0.037 0.027-0.074 0.041-0.111 0.001-0.003 0.002-0.005 0.002-0.008 0.034-0.092 0.067-0.184 0.096-0.277 0.009-0.03 0.018-0.06 0.027-0.09 0-0.001 0.001-0.004 0.002-0.006 0.021-0.071 0.042-0.143 0.06-0.214 0 0 0-0.001 0-0.002 0.009-0.034 0.016-0.068 0.024-0.102 0.02-0.087 0.039-0.174 0.055-0.262v-0.001c0.009-0.05 0.018-0.101 0.025-0.151 0-0.001 0-0.002 0-0.004 0.011-0.072 0.021-0.145 0.029-0.217v0c0.003-0.033 0.007-0.067 0.011-0.101 0.008-0.091 0.015-0.182 0.02-0.274 0-0.001 0-0.003 0-0.004 0.002-0.039 0.004-0.077 0.005-0.116C35.032 39.904 35.033 39.752 35.025 39.6zM71.045 40.975L71.045 40.975c-2.282 0.089-3.096 2.154-3.493 3.829l-4.67 1.813c0.112-0.552 0.169-1.111 0.169-1.669 0-0.157-0.005-0.316-0.015-0.475-0.003-0.049-0.008-0.099-0.012-0.148-0.01-0.11-0.018-0.22-0.03-0.33-0.008-0.058-0.017-0.116-0.024-0.174-0.015-0.102-0.028-0.205-0.047-0.306-0.011-0.061-0.023-0.123-0.035-0.184-0.014-0.067-0.025-0.134-0.04-0.201 2.024-4.619 5.013-7.264 8.216-7.264 2.572 0 5.032 1.723 6.969 4.868l-4.695 1.824C72.657 41.506 71.892 40.975 71.045 40.975zM72.372 42.932l-3.653 1.419c0.498-1.604 1.228-2.327 2.345-2.371C71.481 41.98 71.936 42.317 72.372 42.932zM59.328 50.859c-0.174 0.926-0.244 2.03-0.039 2.835h-4.427c0.014-0.021 0.021-0.045 0.034-0.066 0.037-0.065 0.07-0.132 0.102-0.2 0.021-0.046 0.044-0.092 0.063-0.14 0.029-0.071 0.054-0.145 0.077-0.219 0.015-0.046 0.03-0.091 0.043-0.139 0.021-0.083 0.037-0.166 0.052-0.251 0.008-0.04 0.017-0.08 0.022-0.121 0.017-0.126 0.026-0.254 0.026-0.383 0-0.876-0.385-1.663-0.991-2.207 0.159-1.324 0.493-4.434 0.546-7.52 2.552-0.606 4.563 0.534 5.551 1.289 1.153 0.882 1.615 1.738 1.614 1.94-0.001 0.007 0 0.015-0.001 0.022-0.023 0.229-0.059 0.458-0.104 0.686C60.677 47.124 59.722 48.777 59.328 50.859zM37.899 51.223c0-0.123-0.006-0.245-0.017-0.367-0.004-0.042-0.01-0.085-0.014-0.127-0.011-0.096-0.025-0.19-0.042-0.284-0.009-0.045-0.017-0.09-0.027-0.135-0.007-0.031-0.011-0.063-0.019-0.094h14.537c1.081 0 1.96 0.88 1.96 1.96 0 0.077-0.005 0.153-0.014 0.229-0.003 0.024-0.01 0.051-0.013 0.075-0.009 0.05-0.016 0.099-0.028 0.147-0.006 0.03-0.017 0.059-0.024 0.087-0.013 0.044-0.025 0.087-0.04 0.13-0.011 0.03-0.024 0.059-0.037 0.088-0.017 0.04-0.034 0.08-0.053 0.118-0.015 0.029-0.031 0.058-0.047 0.086-0.021 0.037-0.042 0.074-0.066 0.11-0.018 0.026-0.037 0.054-0.057 0.08-0.024 0.035-0.051 0.068-0.079 0.103-0.021 0.024-0.041 0.049-0.063 0.072-0.03 0.033-0.062 0.064-0.095 0.095-0.021 0.021-0.045 0.044-0.069 0.063-0.014 0.013-0.029 0.023-0.043 0.034H37.111c0.003-0.003 0.005-0.008 0.008-0.013 0.068-0.096 0.132-0.196 0.192-0.298 0.014-0.023 0.027-0.048 0.041-0.071 0.059-0.105 0.116-0.213 0.166-0.322 0.057-0.126 0.106-0.253 0.15-0.382 0.014-0.041 0.024-0.081 0.038-0.121 0.028-0.093 0.054-0.185 0.076-0.278 0.01-0.045 0.021-0.09 0.03-0.136 0.02-0.096 0.035-0.191 0.048-0.288 0.005-0.038 0.011-0.078 0.016-0.118 0.014-0.135 0.023-0.27 0.024-0.405C37.9 51.249 37.899 51.235 37.899 51.223zM61.409 43.275c-0.923-0.803-3.346-2.519-6.565-1.86-0.013-2.127-0.187-4.14-0.676-5.432 3.906 1.26 6.865 3.916 7.664 7.218 0.048 0.197 0.085 0.395 0.116 0.593C61.772 43.607 61.589 43.43 61.409 43.275zM33.571 41.908c-0.063 0.131-0.133 0.257-0.207 0.381-0.021 0.036-0.045 0.071-0.067 0.106-0.057 0.09-0.117 0.178-0.18 0.264-0.025 0.034-0.05 0.068-0.076 0.102-0.087 0.112-0.178 0.222-0.276 0.326 0 0-0.001 0.001-0.001 0.002s-0.001 0.001-0.001 0.001c-0.097 0.103-0.201 0.201-0.308 0.296-0.023 0.021-0.046 0.041-0.07 0.061-0.107 0.092-0.217 0.179-0.333 0.262-0.019 0.014-0.04 0.027-0.059 0.041-0.108 0.075-0.22 0.146-0.336 0.215-0.021 0.012-0.041 0.025-0.061 0.037-0.127 0.072-0.26 0.14-0.396 0.204-0.029 0.014-0.059 0.027-0.089 0.04-0.141 0.063-0.285 0.124-0.434 0.178l-0.002 0.001c-0.271 0.098-0.547 0.177-0.819 0.235-0.072 0.016-0.145 0.028-0.218 0.041l-0.183-0.083c-0.132-0.06-0.267-0.113-0.403-0.159-0.042-0.014-0.085-0.023-0.127-0.037-0.095-0.029-0.19-0.058-0.287-0.079-0.051-0.012-0.102-0.019-0.153-0.028-0.09-0.017-0.179-0.034-0.27-0.046-0.053-0.006-0.106-0.009-0.16-0.013-0.089-0.007-0.179-0.015-0.269-0.017-0.053-0.001-0.106 0.001-0.16 0.002-0.09 0.001-0.18 0.003-0.269 0.01-0.054 0.004-0.107 0.011-0.16 0.018-0.089 0.01-0.177 0.021-0.266 0.037-0.054 0.01-0.108 0.022-0.163 0.035-0.085 0.019-0.169 0.038-0.253 0.063-0.059 0.017-0.116 0.036-0.174 0.055-0.047 0.015-0.094 0.027-0.141 0.044-0.059-0.017-0.118-0.033-0.175-0.051-0.009-0.003-0.018-0.005-0.026-0.008l-0.037-0.012c-0.104-0.033-0.208-0.068-0.311-0.105l-0.068-0.024c-0.095-0.035-0.189-0.073-0.285-0.112l-0.081-0.033C25.1 44.107 24.984 44.055 24.868 44c-0.031-0.091-0.065-0.184-0.102-0.277-0.025-0.064-0.053-0.13-0.081-0.196-0.01-0.024-0.02-0.048-0.031-0.073-0.037-0.083-0.076-0.168-0.116-0.253-0.002-0.005-0.005-0.009-0.007-0.015-0.042-0.089-0.088-0.178-0.135-0.268-0.001-0.001-0.001-0.003-0.003-0.004-0.004-0.007-0.007-0.015-0.011-0.022-0.045-0.085-0.092-0.17-0.141-0.255 0 0 0 0-0.001-0.001-0.007-0.013-0.014-0.025-0.021-0.038-0.046-0.08-0.094-0.158-0.144-0.238-0.001-0.002-0.002-0.003-0.003-0.005-0.03-0.049-0.062-0.097-0.094-0.146-0.002-0.004-0.004-0.007-0.007-0.011-0.057-0.086-0.116-0.172-0.178-0.257-0.016-0.022-0.031-0.044-0.047-0.066 0 0 0-0.001 0-0.001-0.025-0.035-0.05-0.069-0.076-0.104 0-0.001-0.001-0.002-0.002-0.003-0.011-0.014-0.021-0.028-0.031-0.042-0.055-0.072-0.114-0.146-0.177-0.224-0.026-0.031-0.053-0.063-0.079-0.094-0.003-0.004-0.006-0.007-0.008-0.01-0.047-0.055-0.094-0.111-0.146-0.169 0 0-0.001-0.001-0.001-0.001-0.063-0.071-0.129-0.141-0.195-0.21-0.014-0.016-0.029-0.031-0.045-0.047 0 0 0 0 0-0.001-0.079-0.082-0.161-0.161-0.244-0.241-0.005-0.005-0.012-0.011-0.018-0.017 0 0-0.001-0.001-0.001-0.001-0.09-0.085-0.183-0.168-0.278-0.25-0.003-0.003-0.008-0.007-0.012-0.01-0.001-0.001-0.002-0.002-0.004-0.003-0.198-0.171-0.408-0.334-0.629-0.489-0.001 0-0.002-0.001-0.002-0.001-0.015-0.01-0.03-0.021-0.046-0.032-0.248-0.17-0.509-0.329-0.786-0.475-0.027-0.015-0.054-0.029-0.082-0.043-0.04-0.021-0.079-0.043-0.12-0.063-0.021-0.079-0.043-0.154-0.062-0.236l-0.01-0.045c-0.034-0.156-0.059-0.301-0.078-0.448-0.017-0.128-0.028-0.265-0.035-0.406 0-0.01-0.002-0.02-0.003-0.031l-0.001-0.035c-0.005-0.134-0.004-0.274 0.001-0.415 0-0.002 0-0.003 0-0.005l0.004-0.065c0.009-0.152 0.022-0.289 0.041-0.417l0-0.003 0.002-0.014c0.006-0.039 0.014-0.081 0.021-0.121 0.016-0.087 0.034-0.177 0.057-0.273l0.017-0.069c0.032-0.127 0.071-0.256 0.117-0.385l0.027-0.075c0.057-0.152 0.108-0.276 0.162-0.388 0.052-0.108 0.109-0.213 0.168-0.316l0.001-0.002c0.937-1.621 2.816-2.589 5.028-2.589 1.177 0 2.39 0.283 3.508 0.817 2.405 1.15 4.04 3.272 4.267 5.538C34.09 40.265 33.947 41.123 33.571 41.908zM24.707 47.151c0.341-0.748 0.95-1.336 1.713-1.655 0.21-0.088 0.427-0.153 0.647-0.196 0.108-0.021 0.216-0.036 0.326-0.045 0.332 0.04 0.662 0.061 0.987 0.061 0.224 0.048 0.444 0.12 0.657 0.217l0.328 0.149 0.532 0.243 0.308 0.14 0.424 0.193 0.548 0.25 0 0 3.808 1.735c0.731 0.333 1.313 0.927 1.636 1.67 0.371 0.852 0.365 1.821-0.018 2.661-0.053 0.115-0.112 0.226-0.177 0.333-0.021 0.035-0.045 0.067-0.067 0.101-0.046 0.071-0.093 0.142-0.145 0.207-0.029 0.038-0.062 0.073-0.093 0.11-0.049 0.059-0.1 0.116-0.153 0.171-0.036 0.037-0.074 0.072-0.112 0.107-0.034 0.031-0.069 0.062-0.105 0.091h-4.568l-0.123-0.056-0.533-0.243 0 0-4.202-1.915C24.686 50.732 23.959 48.791 24.707 47.151zM30.964 54.7h0.086 2.336 1.08 1.644 16.01 1.76 3.447l25.119 0.005v6.22H17.079V54.7h12.862H30.964zM62.692 53.694l1.622-0.629 1.586-0.616c-0.33 0.497-0.791 0.914-1.381 1.245H62.692zM66.171 53.695c0.494-0.496 0.859-1.08 1.084-1.751 0.003-0.008 0.004-0.016 0.007-0.024l6.717-2.607 0.416-0.162c0.228 1.435 0.37 2.958 0.423 4.546L66.171 53.695zM75.36 48.776l2.001-0.777 3.175-1.232c0.58 2.177 0.921 4.503 1.018 6.928h-5.725C75.773 51.975 75.615 50.324 75.36 48.776zM81.477 46.401l1.026-0.399-0.057 5.925C82.276 50.008 81.951 48.159 81.477 46.401zM24.096 27.989h51.389c3.869 0 7.018 3.035 7.018 6.766v4.243l-3.522 1.367c-2.14-3.551-4.938-5.505-7.917-5.505-3.369 0-6.479 2.481-8.661 6.854-1.808-4.432-7.192-7.532-13.384-7.532-4.258 0-8.209 1.444-10.888 3.971-0.155-0.025-0.31-0.042-0.464-0.054-0.059-0.005-0.117-0.006-0.175-0.009-0.093-0.004-0.186-0.008-0.278-0.008-0.075 0-0.149 0.001-0.224 0.004-0.071 0.002-0.143 0.006-0.213 0.012-0.087 0.006-0.174 0.014-0.261 0.023-0.048 0.006-0.094 0.014-0.142 0.021-0.507 0.073-1.003 0.213-1.485 0.418 0 0-0.001 0-0.002 0.001-0.493-2.343-2.245-4.465-4.722-5.649-1.252-0.599-2.615-0.915-3.941-0.915-2.401 0-4.48 1.005-5.656 2.71-0.046-0.02-0.093-0.041-0.139-0.06-0.049-0.021-0.098-0.039-0.148-0.059-0.133-0.054-0.265-0.105-0.396-0.152-0.053-0.02-0.107-0.038-0.161-0.056-0.128-0.044-0.257-0.087-0.384-0.126-0.051-0.016-0.101-0.03-0.152-0.045-0.133-0.039-0.265-0.074-0.397-0.107-0.043-0.01-0.086-0.021-0.13-0.031-0.145-0.034-0.288-0.063-0.431-0.089-0.03-0.006-0.059-0.012-0.089-0.018-0.338-0.059-0.672-0.099-1-0.117C17.602 30.524 20.558 27.989 24.096 27.989zM13.865 35.727c0.743-0.562 1.663-0.858 2.734-0.881 1.063-0.021 2.252 0.233 3.47 0.741-0.01 0.023-0.021 0.048-0.031 0.072-0.009 0.021-0.019 0.042-0.028 0.065-0.027 0.066-0.055 0.136-0.083 0.212-0.001 0.004-0.003 0.008-0.005 0.012l0 0c0 0 0 0.001 0 0.001l-0.033 0.091c-0.01 0.027-0.016 0.054-0.025 0.081-0.043 0.13-0.085 0.26-0.118 0.387l-0.02 0.083c0 0.002-0.001 0.004-0.002 0.006 0 0 0 0 0 0.001 0 0 0 0 0 0-0.012 0.053-0.022 0.103-0.033 0.153-0.006 0.029-0.014 0.061-0.019 0.089-0.016 0.079-0.029 0.155-0.041 0.23v0l0 0-0.001 0.005-0.001 0.013c-0.012 0.077-0.021 0.157-0.03 0.241 0 0 0 0.001 0 0.001-0.003 0.031-0.005 0.064-0.008 0.095-0.004 0.053-0.009 0.104-0.012 0.159 0 0.002 0 0.005 0 0.008 0 0 0 0.001 0 0.001l-0.005 0.077c-0.003 0.083-0.006 0.167-0.006 0.252 0 0.001 0 0.002 0 0.003v0.001c0 0.07 0.001 0.139 0.003 0.206 0 0.014 0 0.029 0 0.043l0.001 0.014 0.001 0.028v0.001c0.004 0.084 0.009 0.169 0.017 0.254 0 0.001 0 0.002 0 0.002 0.007 0.088 0.017 0.174 0.028 0.261 0 0 0 0.001 0 0.001v0.001h0c0 0.002 0 0.004 0 0.007 0.006 0.048 0.015 0.098 0.022 0.148-0.717-0.222-1.524-0.359-2.431-0.359-0.278 0-0.503 0.225-0.503 0.503 0 0.277 0.225 0.502 0.503 0.502 3.047 0 4.834 1.748 5.628 2.789 0.067 0.088 0.131 0.177 0.193 0.265 0.002 0.003 0.005 0.007 0.007 0.011 0.006 0.008 0.012 0.016 0.017 0.024 0.049 0.07 0.094 0.14 0.14 0.21 0.025 0.04 0.051 0.08 0.075 0.121 0.027 0.043 0.053 0.086 0.078 0.129 0.043 0.074 0.085 0.148 0.125 0.221 0.007 0.014 0.015 0.027 0.022 0.041 0.104 0.197 0.196 0.393 0.276 0.584 0.004 0.011 0.008 0.021 0.012 0.032 0.035 0.084 0.068 0.168 0.098 0.251 0.034 0.094 0.064 0.186 0.092 0.276l0.005 0.017L24 44.588c0.166 0.586 0.191 1.066 0.116 1.341-0.021 0.08-0.021 0.16-0.005 0.235-0.008 0.013-0.017 0.026-0.025 0.04-0.026 0.041-0.053 0.079-0.077 0.12-0.079 0.132-0.153 0.268-0.217 0.409-0.977 2.144-0.027 4.684 2.117 5.662l2.85 1.299h-11.68v-4.335c0-0.166-0.009-0.331-0.024-0.493-0.005-0.055-0.016-0.108-0.022-0.162-0.014-0.107-0.027-0.215-0.047-0.321-0.012-0.063-0.029-0.125-0.043-0.187-0.021-0.095-0.042-0.189-0.069-0.282-0.019-0.065-0.043-0.129-0.064-0.193-0.029-0.087-0.057-0.174-0.09-0.258-0.025-0.066-0.055-0.128-0.083-0.192-0.036-0.081-0.071-0.163-0.11-0.242-0.032-0.063-0.067-0.124-0.101-0.187-0.042-0.076-0.083-0.153-0.129-0.227-0.038-0.061-0.078-0.12-0.118-0.179-0.048-0.072-0.096-0.143-0.148-0.212-0.042-0.057-0.087-0.113-0.133-0.168-0.054-0.067-0.108-0.133-0.165-0.198-0.048-0.053-0.098-0.104-0.147-0.156-0.06-0.062-0.12-0.123-0.182-0.182-0.053-0.049-0.106-0.096-0.161-0.144-0.065-0.056-0.13-0.111-0.197-0.164-0.057-0.044-0.114-0.087-0.172-0.129-0.07-0.051-0.141-0.1-0.213-0.147-0.06-0.039-0.12-0.077-0.182-0.113-0.075-0.044-0.15-0.087-0.227-0.127-0.063-0.034-0.127-0.066-0.192-0.098-0.079-0.037-0.159-0.073-0.24-0.106-0.066-0.028-0.133-0.055-0.201-0.081-0.083-0.031-0.167-0.059-0.252-0.084-0.068-0.022-0.137-0.043-0.207-0.062-0.087-0.023-0.175-0.043-0.263-0.062-0.071-0.015-0.142-0.03-0.214-0.043-0.029-0.005-0.058-0.013-0.088-0.018C11.422 40.419 11.901 37.213 13.865 35.727zM25.395 71.872H12.747c-0.246 0-0.445-0.2-0.445-0.445 0-0.246 0.2-0.446 0.445-0.446h12.648c0.246 0 0.445 0.2 0.445 0.446C25.84 71.672 25.641 71.872 25.395 71.872zM86.714 71.872H74.066c-0.246 0-0.446-0.2-0.446-0.445 0-0.246 0.2-0.446 0.446-0.446h12.647c0.246 0 0.445 0.2 0.445 0.446C87.159 71.672 86.96 71.872 86.714 71.872zM92 65.701c0 2.356-1.917 4.274-4.273 4.274-0.013 0-0.023-0.001-0.036-0.002-0.024-0.002-0.05-0.004-0.074-0.005h-0.015-0.016c-0.024 0.001-0.051 0.003-0.074 0.005-0.012 0.001-0.024 0.002-0.037 0.002h-0.761H74.066 25.395 12.747h-0.948c-2.357 0-4.274-1.918-4.274-4.274V49.359c0-2.356 1.917-4.273 4.274-4.273 0.134 0 0.269 0.01 0.372 0.019 2.188 0.188 3.902 2.058 3.902 4.254V54.7v7.229h67.379l0.057-13.227c0.316-2.045 2.084-3.618 4.218-3.618 2.356 0 4.273 1.917 4.273 4.273V65.701z" fill="#000000" data-fill-palette-color="accent"></path></svg></g></svg></g><g></g></svg></g></svg></g></svg></g></svg></g><defs></defs></svg><rect width="320" height="360" fill="none" stroke="none" visibility="hidden"></rect></g></svg></g></svg>